<svg xmlns="http://www.w3.org/2000/svg" version="1.1" xmlns:xlink="http://www.w3.org/1999/xlink" xmlns:svgjs="http://svgjs.dev/svgjs" width="1000" height="280" viewBox="0 0 1000 280"><g transform="matrix(1,0,0,1,-0.6060581556556599,0.35282871295729024)"><svg viewBox="0 0 396 111" data-background-color="#ffffff" preserveAspectRatio="xMidYMid meet" height="280" width="1000" xmlns="http://www.w3.org/2000/svg" xmlns:xlink="http://www.w3.org/1999/xlink"><g id="tight-bounds" transform="matrix(1,0,0,1,0.23999902963964814,-0.13987138263664178)"><svg viewBox="0 0 395.52 111.2797427652733" height="111.2797427652733" width="395.52"><g><svg viewBox="0 0 395.52 111.2797427652733" height="111.2797427652733" width="395.52"><g><svg viewBox="0 0 395.52 111.2797427652733" height="111.2797427652733" width="395.52"><g id="textblocktransform"><svg viewBox="0 0 395.52 111.2797427652733" height="111.2797427652733" width="395.52" id="textblock"><g><svg viewBox="0 0 395.52 111.2797427652733" height="111.2797427652733" width="395.52"><g transform="matrix(1,0,0,1,0,0)"><svg width="395.52" viewBox="1.75 -35 124.38999938964844 35" height="111.2797427652733" data-palette-color="#000000"><path d="M1.75 0L14.05 0Q16.2 0 18.25-0.58 20.3-1.15 21.9-2.3L21.9-2.3Q23.45-3.4 24.4-5.08 25.35-6.75 25.35-9L25.35-9Q25.35-10.8 24.75-12.25 24.15-13.7 23.2-14.8L23.2-14.8Q22.2-15.9 20.88-16.6 19.55-17.3 18.15-17.6L18.15-17.6Q21.15-18.45 22.63-20.8 24.1-23.15 24.1-26.25L24.1-26.25Q24.1-28.55 23.3-30.23 22.5-31.9 21.1-32.95L21.1-32.95Q19.65-34 17.63-34.5 15.6-35 13.15-35L13.15-35 1.75-35 1.75-31.05 4-31.05 4-3.95 1.75-3.95 1.75 0ZM8.15-3.95L8.15-15.65 13-15.65Q14.55-15.65 16.05-15.3 17.55-14.95 18.7-14.25L18.7-14.25Q19.8-13.5 20.5-12.35 21.2-11.2 21.2-9.65L21.2-9.65Q21.2-8.2 20.6-7.15 20-6.1 19-5.4L19-5.4Q17.95-4.65 16.6-4.3 15.25-3.95 13.7-3.95L13.7-3.95 8.15-3.95ZM8.15-19.6L8.15-31.05 13.45-31.05Q14.8-31.05 15.95-30.78 17.1-30.5 17.95-29.95L17.95-29.95Q18.9-29.3 19.43-28.23 19.95-27.15 19.95-25.6L19.95-25.6Q19.95-22.9 18.23-21.25 16.5-19.6 13.55-19.6L13.55-19.6 8.15-19.6ZM28.85 0L40.95 0 40.95-3.95 35.25-3.95 35.25-15.6 37.35-15.6Q38.05-15.6 38.42-15.63 38.8-15.65 39.5-15.65L39.5-15.65 46.85 0 54.15 0 54.15-3.95 49.45-3.95 43.85-15.95Q47.45-16.75 49.32-19.25 51.2-21.75 51.2-25.5L51.2-25.5Q51.2-28.05 50-29.85 48.8-31.65 47-32.8L47-32.8Q45.2-33.95 43.12-34.48 41.05-35 39.35-35L39.35-35 28.85-35 28.85-31.05 31.1-31.05 31.1-3.95 28.85-3.95 28.85 0ZM35.25-19.6L35.25-31.05 39.65-31.05Q41.2-31.05 42.57-30.6 43.95-30.15 44.95-29.4L44.95-29.4Q45.9-28.6 46.47-27.6 47.05-26.6 47.05-25.5L47.05-25.5Q47.05-24.55 46.7-23.5 46.35-22.45 45.5-21.6L45.5-21.6Q44.65-20.75 43.22-20.18 41.8-19.6 39.6-19.6L39.6-19.6 35.25-19.6ZM57.65 0L69.75 0 69.75-3.95 65.75-3.95 65.75-31.05 69.75-31.05 69.75-35 57.65-35 57.65-31.05 61.6-31.05 61.6-3.95 57.65-3.95 57.65 0ZM73.24 0L98.29 0 98.29-7.7 94.34-7.7 94.34-3.95 80.19-3.95 80.19-15.65 95.64-15.65 95.64-19.6 80.19-19.6 80.19-31.05 93.64-31.05 93.64-27.3 97.59-27.3 97.59-35 73.24-35 73.24-31.05 76.04-31.05 76.04-3.95 73.24-3.95 73.24 0ZM101.79 0L113.89 0 113.89-3.95 108.74-3.95 108.74-15.65 124.19-15.65 124.19-19.6 108.74-19.6 108.74-31.05 122.19-31.05 122.19-27.3 126.14-27.3 126.14-35 101.79-35 101.79-31.05 104.59-31.05 104.59-3.95 101.79-3.95 101.79 0Z" opacity="1" transform="matrix(1,0,0,1,0,0)" fill="#000000" class="wordmark-text-0" data-fill-palette-color="primary" id="text-0"></path></svg></g></svg></g></svg></g></svg></g></svg></g><defs></defs></svg><rect width="395.52" height="111.2797427652733" fill="none" stroke="none" visibility="hidden"></rect></g></svg></g></svg>